<svg xmlns="http://www.w3.org/2000/svg" xmlns:xlink="http://www.w3.org/1999/xlink" viewBox="5 0 1926 975"><defs><style>.a{stroke:#5C6EEA;stroke-width:4px;fill:url(#a);}</style><linearGradient id="a" x1="0.015" y1="0.249" x2="0.813" y2="0.865" gradientUnits="objectBoundingBox"><stop offset="0" stop-color="#8c9aed"/><stop offset="1" stop-color="#f59aa5"/></linearGradient></defs><path class="a" d="M1922.2,1141.152h-20.86l-11.14,18.6-8.8,30.136-28.845,15.618-40.755,10.967-20-10.967-28.8,10.967-22.4,51.733h-16.569l-5.831,36.359h-25.509l-9.794,44.221-21.546-15.723-47.01,99.251-200.848-50L1373.12,1189.89l-14.3,26.584-42.056-194.953-20.187,203.814L1272.186,881h-13.458l-15.981-124.061-15.14,12.659-21.869-101.274L1194.8,693.647l-10.093-60.764-20.187-18.989-12.617,7.6-11.776,22.787-21.869,15.191-11.776,97.476-18.5-88.615-33.645-16.457-11.776-54.435-21.869,16.457-37.009-91.147L967.7,535.406l-10.935-21.521L941.628,543l-19.346-20.255-13.458,12.659-9.252-30.382H886.955l-12.617,17.723-8.411-50.637-10.093-10.127-18.5,10.127-21.869,41.776-33.645-8.862-21.028,48.105L748.171,543l-21.028,22.787-11.776,41.776-27.757,6.33-15.14,67.094-12.617-59.5-10.093,22.787-9.252-22.787-30.28-7.6-33.645,67.094-14.3-24.053-21.869,7.6-9.252-7.6-15.14,24.053L509.3,656.935H481.538l-20.187,7.6-10.093-7.6-6.729,7.6H433.595L407.52,644.276l-4.206,12.659-37.85,24.053L339.39,730.359H317.521L301.54,775.932l-15.14,8.862-21.028,16.457-8.411-16.457H243.5l-5.047,35.446H219.11l-10.093,31.648H198.083c-3.364,0-6.729,11.393-6.729,11.393L181.26,845.558H156.027l-9.252-17.723-21.869,72.158H101.354l-11.776-8.862-7.57,20.718-45.05,18.985L20.327,911.849-8.533,930.835l7.467,488.191H1929.6Z" transform="translate(10.55 -459.507)"/></svg>
